# xmcd
#
# Track frame offsets:
#	150
#	11564
#	24754
#	34977
#	46846
#	60850
#	73656
#	87134
#	100724
#	114273
#	125489
#	139045
#	151819
#	165420
#	179443
#	192872
#	206476
#	227396
#
# Disc length: 3244
#
# Revision: 3
# Processed by: cddbd v1.5.1PL0 Copyright (c) Steve Scherf et al.
# Submitted via: VisiTrax 2.9.9.202 - For more info visit www.synapsa.com
# Normalized: r2:DSETVAR1
#
DISCID=d30caa12
DTITLE=Various Artist - Blues collection VOL. 3 After Midnite - CD 2
DYEAR=2001
DGENRE=Blues
TTITLE0=Betty Hall Jones - This Joint's Too Hip For Me
TTITLE1=T Bone Walker - She's Going  To Ruin Me
TTITLE2=Bus Moten and His Men - Gotta Good Reason For Being Bad
TTITLE3=Walter Brown - Play The Blues
TTITLE4=Sidney Bechet - Wabash Blues
TTITLE5=Amos Milburn - Sax Shack Boogie
TTITLE6=John Lee Hooker - Never Satisfied (Just Like A Woman)
TTITLE7=Gene  Ammons Quintet - Jack's Town
TTITLE8=Floyd Dixon - Walkin' And Talkin' Blues
TTITLE9=Amos Milburn - My Baby's Boogying
TTITLE10=Smokey Hogg - Key To My Door
TTITLE11=Floyd Dixon - She's Understanding
TTITLE12=Nellie Lutcher - He's A Real Gone Guy
TTITLE13=Jay McShann's Kansas City Stompers - Confessin' The Blues
TTITLE14=Sonny Terry - Leavin' Blues
TTITLE15=Floyd Dixon - Bad Neighborhood
TTITLE16=Brownie McGhee and Sonny Terry - Blues For The Lowlands
TTITLE17=Lightnin' Slim - My Babe
EXTD=
EXTT0=
EXTT1=
EXTT2=
EXTT3=
EXTT4=
EXTT5=
EXTT6=
EXTT7=
EXTT8=
EXTT9=
EXTT10=
EXTT11=
EXTT12=
EXTT13=
EXTT14=
EXTT15=
EXTT16=
EXTT17=
PLAYORDER=
